<?xml version="1.0" standalone="yes"?>
<svg xmlns="http://www.w3.org/2000/svg" width="459" height="177">
<path style="fill:#50a7e5; stroke:none;" d="M0 0L0 121L0 153L0 164C0.000599113 165.331 -0.0245581 166.666 0.0192901 167.996C0.0513526 168.969 0.0846142 169.955 0.298611 170.909L0.878858 172.69L1.70756 174.265L2.15201 175.117L2.40741 175.512L3 177L459 177L459 0L0 0z"/>
<path style="fill:#29338f; stroke:none;" d="M39 57L37.3287 56.7971L35.8395 56.4267C34.8548 56.084 33.9 55.7006 33.0139 55.142L31.1296 53.7215L30.2639 52.8665L28.7685 50.9815L28.1481 49.9954L27.1481 48L26.4753 46L26.2685 45L26.1489 44L26.1119 43L26.3079 41L26.9383 39.0008L27.4336 38.0046L28.0316 37.0185L29.4684 35.1296L31.0849 33.4745L31.9205 32.7685L32.7539 32.1474L34.4236 31.1289C35.2358 30.6816 36.1053 30.3441 36.9414 29.946L37.7215 29.5262L38.9761 28.4151L39.3974 27.6867C39.794 26.8517 39.8723 25.8863 39.9414 24.9807L39.9954 22.9992L40 21L40 9C38.3218 9.0139 36.6475 8.99809 34.9753 9.17053C33.6418 9.30804 32.3118 9.53363 31 9.80788C29.6598 10.0881 28.3069 10.3556 27 10.7708C24.605 11.5318 22.2502 12.4556 20.0147 13.6088L18.0895 14.6767L17.1698 15.2569L15.4252 16.5231C14.5564 17.2215 13.6974 17.9321 12.8704 18.6798L11.1458 20.3009L10.314 21.1736L8.78858 23.0394C7.86309 24.2876 7.10029 25.6282 6.37732 27L5.46451 29L4.69985 31L4.35957 32C4.04823 32.992 3.735 33.9817 3.51775 35C3.30601 35.9924 3.17011 36.9885 3.09336 38C3.01759 38.9987 3.01981 39.9995 3.00386 41L3.00077 44L3.03935 47L3.08951 48L3.17052 48.9992L3.29012 49.9961C3.49053 51.2885 3.71173 52.5794 4.10417 53.8302L4.7608 55.5748L6.02315 58.1304C6.58963 59.2806 7.10663 60.461 7.73534 61.5795C8.23908 62.4756 8.80845 63.3283 9.39892 64.169C10.5477 65.8046 11.7725 67.407 13.1844 68.8264C15.1751 70.8276 17.4927 72.5168 20 73.8117C22.5253 75.1159 25.2751 75.9323 28 76.7022C28.9965 76.9837 29.9907 77.2524 31 77.4846L31.9992 77.6705L33.9807 77.848L34.9414 77.8117L35.8519 77.6674L37.3966 76.9715L37.9722 76.3966L38.6821 74.8519L38.9414 72.9807L38.9807 71.9954L38.9954 70.9992L39 69L39 66L39 57z"/>
<path style="fill:#74b3a2; stroke:none;" d="M40 10L41.0864 10.9198L41.517 11L42.321 11.2785L44.0586 11.3897L45.0185 11.4012L47.0008 11.5093L48 11.6142L51 11.9113C52.9989 12.0151 54.9991 11.9992 57 12L66 12L68 12.0008L70.9954 12.0586L71.9807 12.1481L73.8519 12.6034L75.3966 13.6034L75.9722 14.3179L76.3966 15.1481L76.6821 16.0586L76.8519 17.0193L76.9807 18.9961L76.9992 20.9552L77 25L75.6111 25.1111L75.2778 25.3333L74.6667 25.6667L74.1111 26.6111L74 28C71.6673 27.9985 69.3236 28.0529 66.9985 27.8302L63 27.2855L61 27.0895L59 27.0147L56 27L51 26.9992L48.0162 26.946L47.0448 26.8704L45.223 26.5355L43.6373 25.9267L43.2392 25.7438L42 25L41.375 26.625L41.1998 27L40.625 28.375L40 30L63 30L69 30L72.9954 30.0401L73.9753 30.0903L74.9552 30.1782L76.841 30.4784L77.3287 30.5679L79 31L79.5849 29.3287L79.642 28.841L79.8395 27.8395L79.966 25.9753L80 21L80 10L40 10z"/>
<path style="fill:#29338f; stroke:none;" d="M124 10L124 36L156 36L156 11L140 11L135 10.9992C133.668 10.9964 132.332 11.0022 131.002 10.9105C129.373 10.7982 127.769 10.5285 126.159 10.2755L125.671 10.1829L124 10z"/>
<path style="fill:#92b1b9; stroke:none;" d="M40 11L40 29L40.8974 27.9599L41.0409 27.6412L41.5849 26.5224L42 25L43.2392 26.017L44.4498 26.5502L46.115 26.8758C47.4095 26.9885 48.7025 26.9909 50.0008 26.9992L56 27.0008C57.6691 27.0088 59.3366 27.0115 61 27.1698L64 27.5756C64.9985 27.7146 65.9922 27.8412 66.9985 27.9105C67.9825 27.9783 68.9694 27.9869 69.9552 27.9961L74 28L74.3611 26.6111L74.6667 26.2778L75.6111 25.3611L77 25L77 20.9552L76.9807 18.0031L76.8519 16.0586L76.6821 15.1481L75.9722 13.6034L75.3966 13.0278L74.6821 12.6034L72.9414 12.1481C71.6323 11.9962 70.3156 12.006 69 12.0008L66 12L58 12C56.335 11.9994 54.6639 12.0334 53 11.9606C51.9943 11.9167 50.9994 11.8363 50 11.7153C48.6664 11.5537 47.3459 11.3176 46.0046 11.2191C45.0567 11.1496 44.1099 11.1572 43.1605 11.1443L42.159 11.1204L41.6713 11.1212L40 11z"/>
<path style="fill:#74b3a2; stroke:none;" d="M158 12L158 25L157.981 28.9992L157.941 29.9954L157.853 30.9807L157.421 32.8511L156.556 34.3897L155.844 35.0046L154 36L155.086 36.7261L156.321 37.0949L158.059 37.2562C159.376 37.2498 160.685 37.1309 162 37.0748C164.332 36.9755 166.667 37.0002 169 37L187 37L193 37C194.992 36.9968 196.991 37.0282 198.975 36.831C200.666 36.6631 202.332 36.3097 204 36L204 26L203.999 21.0008L203.981 19.0147L203.945 18.0401L203.721 16.1852L203.486 15.3295L202.682 13.804L202.106 13.1481L201.427 12.5725L199.811 11.7029L197.96 11.2245L195.996 11.044L193 11.0008L191 11L173 11L168 11L164.005 11.0401L163.025 11.0903L162.045 11.1782L160.159 11.4784L159.671 11.5679L158 12M278 15L279.671 14.6466L280.159 14.5062L281.16 14.2485L284.005 13.4745C285.327 13.1469 286.66 12.8601 288 12.6157C288.995 12.4342 289.993 12.2713 291 12.1705C292.33 12.0375 293.665 12.0157 295 12.0039L299 12L312 12L310.914 11.4151L310.483 11.358L309.679 11.1605C308.783 11.0561 307.882 11.0425 306.981 11.0139L303 11L294 11L290 11.0401L288 11.1844C286.986 11.283 285.99 11.5141 285.001 11.7461L283.019 12.2724L282.059 12.5401L281.149 12.7994L279.61 13.3565L278.995 13.7963L278.654 13.9676L278 15z"/>
<path style="fill:#92b1b9; stroke:none;" d="M157 12L157 35L157.585 33.9136L157.642 33.483L157.84 32.679C157.982 31.4567 157.982 30.2237 157.997 28.9954L158 23L157.997 18.0046C157.982 16.7763 157.982 15.5433 157.84 14.321L157.642 13.517L157.585 13.0864L157 12M258 29L259.63 28.2299L260.07 27.9066L260.991 27.314C262.385 26.2374 263.711 25.0796 265.17 24.0887C266.091 23.4628 267.061 22.9136 268.015 22.3387L271 20.4815C272.966 19.2013 274.837 17.7596 277 16.8148C278.286 16.2531 279.643 15.9257 281 15.5903L284 14.8457C285.993 14.3206 287.961 13.6579 290 13.3248C291.657 13.0541 293.325 13.0244 295 13.0039L300 13L305 13.0008C306.331 13.0037 307.674 12.9809 309 13.1042L310 13.2091L312 13.5941L314.975 14.4059L315.955 14.625L317.841 14.8966L318.329 14.9545L320 15L318.914 14.3133L318.483 14.1759L317.679 13.8349L316.862 13.5795L314.981 13.0139C313.674 12.6411 312.35 12.3465 311 12.1844C309.674 12.0253 308.333 12.0124 307 12.0039L302 12L296 12C294 12.0032 291.993 11.9712 290 12.1705C287.638 12.4068 285.305 12.9243 283 13.4745L280 14.2693L278 14.784C276.991 15.0527 275.971 15.2948 275 15.6875L273 16.6451L271 17.8989L269 19.2446L268 19.8858L266.005 21.0448L264.054 22.0941L262.264 23.1952L260.769 24.463C260.148 25.0777 259.637 25.7901 259.154 26.5146L258.739 27.2863L258.515 27.6559L258 29z"/>
<path style="fill:#f6ac52; stroke:none;" d="M259 28L259.654 29.6713L259.992 30.1582L260.596 31.1566L262.056 32.9853L265.252 36.5363L268.898 40.4491L271.261 42.9167L275.339 46.8835L278.464 50.0255L280.174 51.4352L282.039 52.3819L284.003 52.7222L285.985 52.5069L286.961 52.2307L287.91 51.8665L289.715 50.9606L290.576 50.4599C291.425 49.9672 292.261 49.4318 293.17 49.0494L295.039 48.4151L296.015 48.2238L297.004 48.108C298.003 48.0399 298.999 48.0041 300 48.0085L301.995 48.0571L302.981 48.1435L303.941 48.2932L305.679 48.8688L306.914 49.6713L308 51L309.671 51.2245L311.16 51.5949L312.044 51.8596L313.99 52.3873L314.962 52.5702L316.826 52.6173L318.536 52.1273L319.335 51.6821L320.884 50.4668L321.665 49.7461L323.3 48.206C324.189 47.4058 325.099 46.6389 326.025 45.8812C326.959 45.1166 327.915 44.3792 328.816 43.5756L330.486 41.9969L333.475 38.8002L335.01 37.196L336.557 35.561L337.29 34.7106L338.548 32.9113L339.288 31L339.252 29.0895L338.914 28.1736L337.677 26.4645L335.941 24.8997C334.083 23.4419 332.141 22.0813 330.001 21.0694C328.447 20.3351 326.744 19.9447 325.259 19.0602C324.161 18.4058 323.271 17.4888 322.29 16.6829L320.741 15.7222C319.865 15.3111 318.913 15.129 317.981 14.8997L315.999 14.4213L313 13.5941L311 13.2091C309.676 13.0251 308.334 13.0167 307 13.0039L303 13L296 13L293 13.0147C291.999 13.0362 290.996 13.0649 290 13.1844L288 13.5147C286.654 13.8257 285.331 14.207 284 14.5756L282 15.1057C279.988 15.6184 277.913 15.9792 276 16.8148C273.837 17.7593 271.965 19.1988 270.001 20.4815L268.015 21.7469C266.765 22.5134 265.494 23.2471 264.29 24.0856L262.62 25.3326L261.874 25.9421L260.992 26.6119L260.573 26.9707L259 28z"/>
<path style="fill:#74b3a2; stroke:none;" d="M369 14L369 30L369.001 35C369.011 36.6556 368.972 38.3376 369.259 39.9753C369.463 41.1332 369.816 42.2404 370.256 43.3287L371 45L380 45L383 44.9992L386 44.9606L387.999 44.8349L390.955 44.554L391.885 44.5448L393.55 44.7978L394.363 45.1127L396 46L396.585 44.3287L396.642 43.841L396.84 42.8395C396.973 41.563 396.982 40.2802 396.997 38.9985L397 33L397 15L396.415 16.0864L396.358 16.517L396.16 17.321C396.056 18.2164 396.036 19.1188 396.014 20.0185L396 25L396 42L395.415 40.3287L395.358 39.841L395.16 38.8395C395.027 37.563 395.018 36.2801 395.003 34.9985L395 30L395 14L369 14z"/>
<path style="fill:#29338f; stroke:none;" d="M397 14L397 45L428 45L428 30L428.001 24C428.009 22.34 428.005 20.6786 428.169 19.0247C428.337 17.3342 428.69 15.6681 429 14L397 14z"/>
<path style="fill:#74b3a2; stroke:none;" d="M321 15L322.086 15.7253L322.517 15.902L324.137 16.6559C325.361 17.1833 326.586 17.7039 327.84 18.159L329.329 18.6312L331 19L329.914 17.6296L328.679 16.6991L326.946 15.8688L326.006 15.5679L324.16 15.189L323.159 15.0934L321 15z"/>
<path style="fill:#92b1b9; stroke:none;" d="M395 15L395 42L395.585 40.9136L395.642 40.483L395.84 39.679C395.944 38.7838 395.964 37.8812 395.986 36.9815L396 32L396 23L395.966 19.0586L395.84 17.321L395.642 16.517L395.585 16.0864L395 15z"/>
<path style="fill:#74b3a2; stroke:none;" d="M430 15L430 34C430.001 35.6588 429.964 37.3238 430.059 38.9807L430.318 40.8519L431.028 42.3966L431.603 42.9722L432.318 43.3966L434.059 43.8519C435.368 44.0038 436.684 43.994 438 43.9992L441 44L447 44L449.995 43.9807L451.941 43.8519L452.852 43.6821L454.397 42.9722L454.972 42.3966L455.682 40.8519L455.941 38.9807L455.981 37.9954L455.995 36.9992L456 34L456 29L456 25L455.995 22.0008L455.981 21.0046L455.941 20.0193L455.682 18.1481L454.972 16.6034L454.397 16.0278C453.713 15.4864 452.79 15.2466 451.941 15.1481C450.303 14.9579 448.646 15.0034 447 15L430 15z"/>
<path style="fill:#92b1b9; stroke:none;" d="M323 16L323.59 17.848L324.029 18.5718L325.318 19.5293L326.148 19.9113L328.019 20.6443L330.001 21.564C331.043 22.1198 332.031 22.7693 332.999 23.4437C334.008 24.146 334.988 24.888 335.937 25.669L337.624 27.3002L338.669 29.0895L338.833 30.0355L338.744 31L337.913 32.9113L336.552 34.7106L335.788 35.561L335.01 36.385L332.731 38.8002L330.486 41.1991L328.816 42.7894C327.615 43.8695 326.335 44.8582 325.086 45.8812L323.3 47.4236L320.884 49.7454L320.116 50.463L318.536 51.6427L316.826 52.277C315.203 52.5675 313.598 51.9556 312.044 51.5895L310.159 51.2068L309.671 51.1134L308 51L307.346 49.6713L306.39 48.8688L304.851 48.2932L302.981 48.0571L300 48.0015L298.001 48.0154L296.015 48.108L295.039 48.2238L293.17 48.6883C292.252 49.0045 291.418 49.4872 290.576 49.9591C289.385 50.6258 288.231 51.3449 286.965 51.8673L286.01 52.2353L284.16 52.7361L282.671 52.9429L281 53L282.086 53.8542L283.321 54.2323L285.059 54.2431L287.005 53.7693L289 52.9568L291 52.0147L292 51.5532L294 50.7639L295 50.4738L297 50.1335C298.657 49.9592 300.367 50.0582 302 50.3789C303.372 50.6484 304.682 51.1259 306 51.5802L310 52.9306L312 53.6157L312.999 53.9552C314.262 54.3465 315.57 54.7302 316.91 54.5679L318.7 54.0432L319.536 53.5625L321.116 52.2909L321.884 51.5563L324.3 49.2099C325.186 48.404 326.095 47.6317 327.039 46.8958C327.995 46.1513 328.987 45.4628 329.976 44.7639L331.84 43.5663L332.841 43.0224L333.329 42.733L335 42L335.342 40.3326L336.015 38.8789L337.224 37.1451L337.959 36.2809L339.447 34.5756L340.111 33.7145L341.138 31.9105L341.681 29.99L341.776 29.0208L341.692 27.1605L341.431 25.6713L341 24L339.329 23.9846L337.854 23.642L336.065 22.8171L334.284 21.6111L332.576 20.331L330.83 19.2245C329.924 18.7147 328.962 18.3049 328.01 17.8889L326.16 17.1003L325.159 16.7207L324.671 16.51L323 16z"/>
<path style="fill:#50a7e5; stroke:none;" d="M428 16L428 45L428.585 43.9136L428.642 43.483L428.84 42.679L428.966 40.9414L429 37L429 26L428.986 21.0185C428.964 20.1189 428.944 19.2162 428.84 18.321L428.642 17.517L428.585 17.0864L428 16z"/>
<path style="fill:#92b1b9; stroke:none;" d="M429 16L429 46L429.919 44.9136L429.996 44.483L430.264 43.679C430.39 42.4464 430.23 41.2236 430.152 39.9954L430.015 37L430 33L430 25L429.986 21.0185C429.958 20.1183 429.944 19.2172 429.84 18.321L429.642 17.517L429.585 17.0864L429 16z"/>
<path style="fill:#74b3a2; stroke:none;" d="M264 21L265.085 21.3449L265.512 21.2377L266.296 21.1551L267.898 20.544L271 19L269.915 18.5579L269.488 18.6281L268.704 18.6497L267.102 19.1883L265.667 19.9236L264 21M333 21L333.909 21.8997L334.347 22.1111L336 23L335.639 21.8611L335.333 21.6667L334.389 21.1111L333 21M336 23L336.909 24.0108L337.347 24.1944L339 25L338.639 23.8611L338.333 23.6667L337.389 23.1111L336 23z"/>
<path style="fill:#29338f; stroke:none;" d="M257 29L255.427 30.6713C254.181 32.081 252.974 33.5235 251.814 35.0046C251.045 35.9864 250.284 36.975 249.573 38C248.899 38.973 248.27 39.9738 247.68 41C246.568 42.9327 245.636 44.964 244.731 47C244.291 47.9928 243.842 48.9864 243.45 50C242.688 51.9708 242.002 53.9656 241.428 56C240.965 57.6434 240.544 59.3082 240.3 61C240.013 62.9903 240.01 64.9938 240.001 67L240 72L240.004 76C240.016 77.3338 240.026 78.6736 240.184 80L240.514 82L241.505 86C241.819 87.3311 242.058 88.6799 242.419 90C242.787 91.3454 243.255 92.6644 243.769 93.9606C244.138 94.894 244.534 95.8119 244.981 96.7106C245.538 97.8274 246.174 98.9039 246.769 100C248.045 102.348 249.247 104.756 250.823 106.924C251.488 107.837 252.22 108.682 252.965 109.53L253.644 110.265L254.403 111.117L254.776 111.512L256 113L257.671 112.225L259.16 111.26L261.025 109.772L263.002 107.956L266.996 104.015C268.832 102.206 270.684 100.416 272.575 98.6651C273.995 97.3502 275.464 96.0858 276.855 94.74C278.141 93.496 279.336 92.1671 280.59 90.892L281.335 90.2407L281.682 89.9035L283 89L282.448 87.3287L282.191 86.841L281.731 85.8395L280.169 82.9954L279.209 81L278.468 79C278.038 77.6926 277.737 76.3473 277.465 75L277.174 73L277.044 71.0008L277.033 70.0039C277.06 69.0258 277.087 68.0559 277.26 67.0895L277.725 65.2855L278.395 63.5756L279.133 61.8349L279.931 60.0193L280.85 58.3171L281.759 57.0864L283 56L283 54L281.64 52.9136L281.246 52.483L280.421 51.679L278.806 49.9414L275.985 46.9992L272.001 43L267.174 38.0903L263.155 33.8997C262.024 32.7458 260.891 31.5974 259.645 30.5663L258.473 29.733L257 29z"/>
<path style="fill:#50a7e5; stroke:none;" d="M258 29L259 30L258 29z"/>
<path style="fill:#92b1b9; stroke:none;" d="M260 31L261 32L260 31M262 33L263 34L262 33z"/>
<path style="fill:#74b3a2; stroke:none;" d="M340 33L338.934 34.358L338.542 34.7492L337.828 35.5548L336.552 37.0332L335.977 37.9344L335.65 38.3719L335 40L336.651 39.0965L338.009 38.1088L339.387 36.7145L340.237 35.2269L340.425 34.071L340 33z"/>
<path style="fill:#92b1b9; stroke:none;" d="M263 34L264 35L263 34M123 36L123 102L154 102L152.914 101.415L152.483 101.358L151.679 101.16L149.941 101.034L146 101L135 101C133.336 100.999 131.667 101.035 130.005 100.941L128.059 100.682L127.148 100.397L126.318 99.9722L125.603 99.3966L125.028 98.6821L124.603 97.8519L124.318 96.9414L124.059 94.9954L124.019 93.9992L124 91L124 84L124 37L154 37L152.914 36.4151L152.483 36.358L151.679 36.1605C150.457 36.0181 149.224 36.0177 147.995 36.0031L143 36L123 36z"/>
<path style="fill:#f6ac52; stroke:none;" d="M124 37L124 84L124 91L124.005 93.9992L124.019 94.9954L124.148 96.9414L124.318 97.8519L124.603 98.6821L125.028 99.3966L125.603 99.9722L127.148 100.682L129.019 100.941C130.676 101.036 132.341 100.999 134 101L155 101L155 86L166 86L172 85.9992L173.995 85.9807L175.941 85.8519L177.682 85.3966L178.397 84.9722L178.972 84.3966C179.528 83.6951 179.721 82.8019 179.852 81.9414L179.981 79.9954L179.999 78L180 73L180 62L178.329 61.5679L177.841 61.4784L175.955 61.1782L173.995 61.0401L170 61L165 61C163.34 60.9966 161.672 61.0376 160.019 60.8519C159.094 60.7479 158.102 60.4957 157.318 59.9722L156.603 59.3966L155.603 57.8519L155.148 55.9807L155.059 54.9954L155.005 53L155 51L155 47L155 37L124 37z"/>
<path style="fill:#92b1b9; stroke:none;" d="M155 37L155 48L155.001 53L155.019 54.9954L155.148 56.9414L155.603 58.6821L156.028 59.3966L156.603 59.9722C157.287 60.5136 158.21 60.7534 159.059 60.8519C160.697 61.0421 162.354 60.9966 164 61L170 61.0008C171.331 61.0036 172.667 60.9974 173.995 61.0895L175.955 61.2863C177.311 61.4882 178.653 61.7498 180 62L180 72L179.999 77L179.981 78.9992L179.852 80.9807L179.682 81.9414L179.397 82.8519L178.397 84.3966L176.852 85.3966L175.941 85.6821L174.981 85.8519L172.999 85.9807L171 85.9992L166 86L155 86L155 98L155.585 96.9136L155.642 96.483L155.84 95.679C155.981 94.4648 155.982 93.2402 155.997 92.0201L156 87L181 87L181 74L181.004 70C181.016 68.673 181.038 67.3464 181.169 66.0247C181.337 64.3342 181.69 62.6681 182 61L180.329 60.4151L179.841 60.358L178.84 60.1605L176.975 60.034C174.984 59.9926 172.992 60.0001 171 60L158 60C157.69 58.3319 157.337 56.6657 157.169 54.9753C156.939 52.6609 157.001 50.3224 157 48L157 37L155 37M266 37L267 38L266 37M269 40L270 41L269 40M274 45L275 46L274 45M396 45L396 128L428 128L428 46L427.415 47.0864L427.358 47.517L427.16 48.321C427.056 49.2162 427.036 50.1188 427.014 51.0185L427 56L427 71L427 127L420.995 127C419.331 126.997 417.661 127.024 416 126.91L414 126.715L411 126.285C410.002 126.156 409.005 126.084 408 126.039C406.007 125.951 404.006 126.075 402.019 125.852C400.777 125.712 399.506 125.3 398.603 124.397L397.603 122.852L397.318 121.941L397.148 120.981L397.019 118.999L397.005 118L397 114L397 106L397 87L397 81C397.001 79.6678 396.981 78.3313 397.039 77C397.083 75.9944 397.162 74.9991 397.285 74L397.83 70C397.989 68.3366 397.991 66.6692 397.999 65L398 55L398.018 52.0046L398.124 50.0586L398.45 48.321L398.836 47.517L398.983 47.0864L400 46L398.96 45.4151L398.641 45.3588L397.522 45.1026L396 45z"/>
<path style="fill:#f6ac52; stroke:none;" d="M398 46L398 59L397.999 64L397.961 67L397.83 69L397.715 70L397.285 73L397.17 74L397.039 76C396.981 77.3313 397.001 78.6678 397 80L397 86L397 105L397 114L397 117L397.005 118.999L397.019 119.995L397.059 120.981L397.318 122.852L398.028 124.397L398.603 124.972L400.148 125.682L402.019 125.941L407 126.039C408.005 126.084 409.002 126.156 410 126.285L413 126.715L415 126.91C416.662 127.024 418.333 126.997 419.998 127L427 127L427 45L412 45L407 45.0008L404.005 45.0401L402.045 45.1782L400.159 45.4784L399.671 45.5679L398 46z"/>
<path style="fill:#74b3a2; stroke:none;" d="M427 45L427.432 46.6713L427.522 47.159L427.822 49.0448L427.96 51.0046L427.999 54L428 58L428 73L428 124L428.585 122.914L428.642 122.483L428.84 121.679L428.966 119.941L429 116L429 105L429 64L429 56L428.999 52.0008C428.991 50.714 428.991 49.4318 428.876 48.1489L428.55 46.6103L428.164 45.9954L428.017 45.6543L427 45z"/>
<path style="fill:#92b1b9; stroke:none;" d="M277 48L278 49L277 48M39 56L39.6543 57.017L39.9954 57.1636L40.6103 57.5502L42.1489 57.8758L44.0193 57.9823L45.0046 57.9954L48 58.0008C49.6692 58.0096 51.3365 58.0113 53 58.1698C54.0054 58.2655 55.0014 58.4304 56 58.5764L58 58.8449C59.6524 59.0461 61.3545 59.0926 62.9606 59.571C63.9359 59.8614 64.8504 60.2598 65.7145 60.7994L68.2608 62.5301L69.929 63.4144L71.3441 63.841L73 64L71.9174 62.6829L71.4977 62.3395L70.7184 61.6096L69.1111 60.3789C68.3097 59.8085 67.4775 59.2433 66.5748 58.8426L64.8302 58.2631L63.9105 58.0941L61.9853 57.8488L59.9992 57.5764L59 57.4244L57 57.1698L55 57.0394L52 57.0008L48 56.9992L45.0046 56.9599L43.0448 56.8218L41.159 56.5216L40.6713 56.4321L39 56z"/>
<path style="fill:#74b3a2; stroke:none;" d="M40 56L41.0864 56.5849L41.517 56.642L42.321 56.8395L44.0586 56.966L48 57L56 57L54.9136 56.4151L54.483 56.358L53.679 56.1605L51.9414 56.034L48 56L40 56M59 57L60.0602 57.5849L60.4722 57.642L61.1605 57.8395L62.3904 57.9645L64 58L62.9398 57.4151L62.5278 57.358L61.8395 57.1605L60.6096 57.0355L59 57z"/>
<path style="fill:#f6ac52; stroke:none;" d="M39 58L39 65.0015L39.0039 69C39.0178 70.0018 39.039 70.9956 39.1088 71.9954L39.2284 72.9807C39.3939 73.9189 39.6426 74.8782 40.179 75.6821L40.7423 76.3966L42.2284 77.3966L44.044 77.8519L46.0039 77.9815L49 78.0432L51 78.2091L53 78.5941C54.333 78.9088 55.6282 79.3661 56.9753 79.625C58.0848 79.8382 59.2004 79.9432 60.3287 79.9838L62 80L62.0571 81.6713L62.2593 83.1605L62.7099 85.0247C62.9932 86.0163 63.3047 86.9961 63.544 88C63.855 89.3051 63.9532 90.662 63.8873 92C63.8028 93.7161 63.4356 95.4129 62.7716 96.9992L61.7755 98.9853L61.1605 99.9599L60.4815 100.906L58.9815 102.656L58.1914 103.427L57.3843 104.106L55.7106 105.142C54.5329 105.69 53.2677 105.86 51.9853 105.945C50.993 106.011 49.9938 105.993 49 105.999L39 106L39 115L39.0147 118.998L39.0903 120.975L39.2894 122.84L39.4784 123.841L40 126L50 126L52.9961 125.995C53.9656 125.984 54.9462 125.987 55.9105 125.871L57.7145 125.545L58.5756 125.29L61.1551 124.437L63.8449 123.779L65.5764 123.19C66.4796 122.807 67.3244 122.296 68.1698 121.803L72.0039 119.495L74.9954 117.605C75.9748 116.963 76.9826 116.327 77.8557 115.541C78.7039 114.777 79.4971 113.936 80.0802 112.946L80.6211 111.981L82.0154 109L83.0355 107C83.5573 105.997 84.1491 105.026 84.6265 104L85.5208 102C85.8881 101.011 86.2331 100.03 86.4707 99C87.0011 96.7017 86.9915 94.3446 86.9992 92L86.9853 89C86.9645 87.999 86.935 86.9962 86.8264 86C86.6413 84.3031 86.2951 82.6211 85.7546 81.0008L84.99 79.0147L84.5355 78.0394L83.5216 76.1705L82.4159 74.439L81.162 72.804C80.2191 71.6344 79.0789 70.6397 78.0347 69.5656L76.4406 67.8881L74.9992 66.2739L74.2901 65.5694L72.7446 64.4552L70.071 63.0856L68.2847 61.9653C67.4438 61.3928 66.6269 60.7582 65.7145 60.2986L63.9105 59.571L61.9853 59.1744L58 58.7184L55 58.2855L53 58.0895C52.0016 58.0211 51.0003 58.0127 50 58.0039L47 58L39 58z"/>
<path style="fill:#74b3a2; stroke:none;" d="M69 60L69.909 61.0108L70.3472 61.1944L72 62L71.091 60.9892L70.6528 60.8056L69 60M181 63L181 85L181.585 83.9136L181.642 83.483L181.84 82.679C181.982 81.4567 181.982 80.2237 181.997 78.9954L182 74L181.997 69.0046C181.982 67.7763 181.982 66.5433 181.84 65.321L181.642 64.517L181.585 64.0864L181 63M122 64L122 100L122.585 98.9136L122.642 98.483L122.84 97.679C122.982 96.4566 122.982 95.2237 122.997 93.9954L123 89L123 74L122.986 69.0185C122.964 68.1189 122.944 67.2162 122.84 66.321L122.642 65.517L122.585 65.0864L122 64z"/>
<path style="fill:#92b1b9; stroke:none;" d="M75 65L75.3426 66.6289L76.0247 67.9722L77.2731 69.4614L77.9877 70.1088L79.3488 71.0965L81 72L80.3495 70.4275L80.0208 70.0131L79.4344 69.1443L78.0741 67.689L76.6181 66.348L76.2346 65.9884L75 65z"/>
<path style="fill:#74b3a2; stroke:none;" d="M76 66L77.0401 67.2099L77.3588 67.4414L78.4776 68.2724L80 69L79.3719 67.8009L78.5494 67.0309L77.8457 66.6744L77.5108 66.446L76 66z"/>
<path style="fill:#92b1b9; stroke:none;" d="M81.3333 72.6667L81.3333 73L81.6667 73.3333L81.6667 72.6667L81.3333 72.6667z"/>
<path style="fill:#74b3a2; stroke:none;" d="M82 72L82 74L84 74L84 72L82 72z"/>
<path style="fill:#92b1b9; stroke:none;" d="M83 74L83.3472 76L83.4151 76.5062L84 78L84.3673 76.9753L84.2593 76L83.9552 75.3796L83.8611 75.0247L83 74M39 75L39.5903 76.8441L40.0293 77.5563L41.3179 78.4213L43.0586 78.8534L44.0193 78.9421L48 79.0895L49.9954 79.2855L52.8395 79.7137L53.841 79.8326L54.3287 79.902L56 80L54.9136 79.1034L53.679 78.5795L51.9414 78.2029L49.9954 78.0424L48.9992 78.0147C47.3514 77.9557 45.6675 78.0614 44.0448 77.7006L43.115 77.4552L41.4498 76.7168C40.5799 76.2417 39.7962 75.5749 39 75z"/>
<path style="fill:#74b3a2; stroke:none;" d="M85 76L85.0988 77.6713L85.3002 79.1559C85.461 80.0591 85.6528 80.9537 85.8742 81.8441L86.3171 83.3287L87 85L87.5656 83.9136L87.7099 82.6798L87.4969 80.9599L87.2423 80.0401L86.5502 78.3202L85.8657 77.0864L85 76M40 79L41.0864 79.5849L41.517 79.642L42.321 79.8395C43.5418 79.9817 44.7732 79.982 46 79.9969L52 80L50.9136 79.4151L50.483 79.358L49.679 79.1605C48.4582 79.0183 47.2268 79.018 46 79.0031L40 79M56 80L56.7701 81.5733L57.6852 82.8742L58.2909 83.6204C59.1658 84.7262 60.0728 85.8142 60.6975 87.0895L61.4275 89.0147L61.652 90.0039L61.7955 91.0008L61.8511 92.9954L61.7569 93.9815L61.2577 95.8711L60.277 97.5432L59.625 98.2855L58.2076 99.6651L57.5664 100.296L56.6505 101.468L56 103L57.6667 102.444L58.1397 102.172L59.1019 101.676L60.7068 100.427L61.9738 98.811L62.6821 96.9599L62.8519 95.9853L62.9799 93.9992L62.9846 92C62.9583 90.9987 62.927 90.0023 62.8302 89.0046C62.7376 88.0493 62.5739 87.1077 62.4252 86.1605L62.2755 85.159L62.1829 84.6713L62 83L60.3549 82.0741L59 81.2901L58.1142 80.858L57.6451 80.5926L56 80z"/>
<path style="fill:#92b1b9; stroke:none;" d="M58 80L59.0401 81.3303L59.3588 81.5617L60.4776 82.3928L62 83L61.8889 81.6111L61.2778 80.6667L60.7222 80.3333L59.4722 80.0278L58 80z"/>
<path style="fill:#74b3a2; stroke:none;" d="M395 80L395 125L395.585 123.914L395.642 123.483L395.84 122.679C395.982 121.457 395.982 120.224 395.997 118.995L396 112L396 91L395.997 86.0046C395.982 84.7762 395.982 83.5434 395.84 82.321L395.642 81.517L395.585 81.0864L395 80z"/>
<path style="fill:#92b1b9; stroke:none;" d="M62 85C62.3095 86.6671 62.6599 88.3311 62.831 90.0201C63.0323 92.0063 62.9945 94.0067 63 96L63.5849 94.9136L63.642 94.483L63.8395 93.679C63.9418 92.789 63.9811 91.8813 63.9684 90.9861L63.875 89.0579L63.5502 87.321L63.1636 86.517L63.017 86.0864L62 85M87 85L87 96L87.5849 94.9136L87.642 94.483L87.8395 93.679C87.9433 92.7867 87.9716 91.8834 87.983 90.9861L87.9653 89.0579L87.9066 88.1381L87.8395 87.321L87.642 86.517L87.5849 86.0864L87 85z"/>
<path style="fill:#74b3a2; stroke:none;" d="M88 86L88 96L88.5849 94.9136L88.642 94.483L88.8395 93.679C88.942 92.7914 88.9722 91.8926 88.9722 91C88.9722 90.1074 88.942 89.2087 88.8395 88.321L88.642 87.517L88.5849 87.0864L88 86M156 87L155.996 91.0448C155.969 92.7034 155.947 94.3541 155.674 95.9954C155.333 98.0489 154.627 100.022 154 102L155.011 101.517L155.194 101.194L156 100L156.585 101.671L156.642 102.159L156.84 103.16C156.973 104.437 156.982 105.72 156.997 107.002L157 112L157 128L204 128L204 120L204.039 116L204.09 115L204.285 113L204.71 110.001L204.852 108.019L204.812 107.055L204.667 106.133L203.971 104.514L203.397 103.858L202.682 103.318L201.852 102.894L199.981 102.344L198.995 102.189L197.999 102.094L196 102.015L192 102L180 102L176 101.999L173 101.961C171.995 101.917 170.998 101.844 170 101.715L167 101.286C166.004 101.166 165.009 101.078 164.005 101.079C163.049 101.081 162.107 101.169 161.16 101.29L159.671 101.568L158 102L157.817 100.329L157.725 99.841C157.472 98.2311 157.202 96.6276 157.09 95C157.021 94.0165 157.013 93.03 157.004 92.0448L157 88L179 88L177.914 87.4151L177.483 87.358L176.679 87.1605C175.783 87.0561 174.882 87.0425 173.981 87.0139L170 87L156 87z"/>
<path style="fill:#92b1b9; stroke:none;" d="M258 115L259.177 114.387L259.478 114.093L260.15 113.559L261.439 112.279L264.505 109.083C265.492 108.02 266.446 106.923 267.499 105.923C269.037 104.463 270.743 103.19 272.41 101.883C273.484 101.042 274.59 100.229 275.583 99.2894C276.573 98.3533 277.447 97.3106 278.306 96.2562L279.519 94.7307L280.059 93.8827L280.365 93.4884L281 92L285 92L285 90L283.344 90.1181L282.88 90.2261L281.125 90.7415L279.421 91.7276L278.578 92.3943L276.87 93.9352L275.13 95.5517L273.421 97.1165L268.961 101.174C267.613 102.42 266.299 103.704 265.004 105.004C264.023 105.988 263.056 106.982 262.109 107.998L260.434 109.975L259.185 111.84L258.471 113.329L258 115z"/>
<path style="fill:#74b3a2; stroke:none;" d="M285 90L283.96 91.0177L283.641 91.162L282.522 91.7052L281 92L279.971 93.4884L279.611 93.8827L278.317 95.4514L276.3 97.831L274.83 99.2894C274.063 99.9869 273.227 100.61 272.41 101.246L269.924 103.178L268.285 104.509L266.742 105.923C265.486 107.204 264.276 108.532 262.976 109.769L261.629 110.929L260 112L260.098 113.667L260.167 114.134L260.287 115.116L261 119L262.63 119.635L263.991 120.481L266.429 122.344C268.491 123.904 270.558 125.531 273.001 126.454C273.965 126.819 274.989 127.04 276 127.227L279 127.714L280.999 127.915C282.302 128.034 283.624 128.007 284.91 128.273L286.715 128.799L287.576 129.17L289.285 129.969L291.09 130.586C292.695 130.982 294.358 130.973 296 130.996L299 131L303 131L310 130.999C312.304 130.988 314.666 131.05 316.91 130.446C319.537 129.74 321.784 128.126 324.039 126.674L326.004 125.454L328 124.441C329.334 123.852 330.702 123.336 331.961 122.59C333.251 121.824 334.462 120.89 335.556 119.865L337.137 118.336L338.486 116.725L339.41 115.07L339.689 114.12L340 112L338.61 111.35L338.285 111.019L337.555 110.429L336.97 109.773L335.644 108.228L333.541 105.753L332.149 104.084C331.441 103.26 330.723 102.455 329.98 101.663L328.53 100.14L327.32 98.696L326.556 97.4846L326 96L321 96L320.28 93.8997L319.815 92.9877L318.566 91.5826L317.772 91.0378L315.96 90.412L314.999 90.3364L314.036 90.3989L313.093 90.5772L311.325 91.2245C309.933 91.8766 308.791 92.9429 307.486 93.7369L305.816 94.4907L304.907 94.7222L303.96 94.8665L302.985 94.9444L300.999 94.9807C299.667 94.9479 298.314 94.928 297 94.6744L296 94.4815L294.002 93.9429L292.025 93.2207L290.16 92.3156L288.671 91.3711L287 90L285 90M87 96C86.6981 97.6187 86.38 99.2304 86.169 100.864L86.0417 102.33L86 104L86.7677 102.914L86.9167 102.484L87.2616 101.684L87.6466 100L87.7469 98.3164L87.6019 97.5162L87.5694 97.0864L87 96z"/>
<path style="fill:#92b1b9; stroke:none;" d="M156 100L156 128L156.585 126.914L156.642 126.483L156.84 125.679L156.966 123.941L157 120L157 110L156.986 105.019C156.964 104.119 156.944 103.216 156.84 102.321L156.642 101.517L156.585 101.086L156 100M39 104L39.6543 105.017L39.9954 105.164L40.6103 105.55L42.1489 105.876L43.0586 105.946L44.0193 105.982L47 106L50.9961 105.995C52.273 105.966 53.5733 105.996 54.8295 105.721C55.7355 105.524 56.574 105.191 57.3657 104.707L58.8488 103.587L59.5718 102.825L59.9552 102.468L61 101L59.3287 101.54L57.8395 102.215L56.9552 102.664C55.6661 103.291 54.3808 103.944 53 104.352L51 104.786L50 104.895L48 104.984C46.6748 105.017 45.3479 104.981 44.0247 104.91L42.1605 104.711L41.159 104.522L39 104M85.3333 102.667L85.3333 103.333L85.6667 103.333L85.6667 102.667L85.3333 102.667z"/>
<path style="fill:#29338f; stroke:none;" d="M123 102L123 127L134 127L137 127.001L140 127.039C141.006 127.083 142.001 127.162 143 127.285L147 127.83C148.611 127.984 150.224 127.988 151.84 127.999L155 128L155 102L123 102z"/>
<path style="fill:#50a7e5; stroke:none;" d="M155 102L155 120L155.585 118.914L155.642 118.483L155.84 117.679C155.944 116.783 155.958 115.882 155.986 114.981L156 111L155.986 107.019C155.958 106.118 155.944 105.217 155.84 104.321L155.642 103.517L155.585 103.086L155 102z"/>
<path style="fill:#74b3a2; stroke:none;" d="M40 104L41.0864 104.585L41.517 104.642L42.321 104.84L44.0586 104.966L46.9992 104.999L54 105L52.9136 104.415L52.483 104.358L51.679 104.16L49.9414 104.034L47.0008 104.001L40 104z"/>
<path style="fill:#92b1b9; stroke:none;" d="M84 104C83.3199 105.344 82.6173 106.679 81.9815 108.045C81.2055 109.712 80.5466 111.458 79.4406 112.946L77.8557 114.74L75.9807 116.275C74.6822 117.182 73.3434 118.024 72.0039 118.87L68.1698 121.255C66.7825 122.096 65.4203 123.017 63.8549 123.502C62.8224 123.821 61.7421 123.93 60.6674 123.981L59 124L59 126L60.6713 125.985C62.1279 125.914 63.5937 125.834 65.0046 125.428C66.0446 125.129 67.0648 124.732 68 124.182L69 123.58L73 120.816C75.0029 119.481 77.139 118.334 78.956 116.737L80.7724 114.946L81.5702 113.981L82.2724 112.995L82.8603 111.999L83.3465 111.001L84.0432 109.019C84.2963 108.142 84.4597 107.23 84.5378 106.321L84.4707 105.517L84.4861 105.086L84 104z"/>
<path style="fill:#29338f; stroke:none;" d="M10 105L10 126L38 126L38.0039 121.955C38.0131 120.969 38.0217 119.983 38.0895 118.998C38.1588 117.992 38.2854 116.999 38.4244 116C38.5634 115.001 38.7405 114.006 38.8295 113L38.9414 111.005L38.9267 110.019L38.848 109.059C38.7257 108.199 38.5258 107.303 37.9722 106.603L37.3966 106.028L36.6821 105.603L34.9414 105.148C33.3031 104.958 31.6461 105.003 30 105L10 105z"/>
<path style="fill:#92b1b9; stroke:none;" d="M38 115L38.0008 120.025L38.034 122.975L38.1605 124.84L38.358 125.841L38.4151 126.329L39 128L41.159 127.478L42.1605 127.289L44.0247 127.09L46.0015 127.015L50 127L59 127L57.9136 126.415L57.483 126.358L56.679 126.16L54.9414 126.034L51 126L40 126C39.69 124.33 39.3576 122.669 39.1659 120.98L38.9213 118.138L38.8434 117.321L38.6427 116.517L38.5849 116.086L38 115z"/>
<path style="fill:#74b3a2; stroke:none;" d="M71 121L72.0671 121.43L72.4583 121.352L73.8171 121.038L74.5417 120.535L74.9329 120.314L76 119L74.375 119.505L74 119.679L73 120.079L71 121M155 120L155 126L155.582 124.918L155.628 124.502L155.806 123.738L155.806 122.262L155.628 121.498L155.582 121.082L155 120M40 127L41.0864 127.585L41.517 127.642L42.321 127.84L44.0586 127.966L48 128L57 128L55.9136 127.415L55.483 127.358L54.679 127.16L52.9414 127.034L49 127L40 127z"/>
<path style="fill:#29338f; stroke:none;" d="M19 146L19 157L18.9853 161.998L18.9097 163.975L18.8218 164.955L18.5216 166.841L18.4321 167.329L18 169L22.044 168.985L23.9892 168.891L24.9576 168.772L25.8912 168.566L26.7716 168.258L28.2577 167.258L28.821 166.566L29.5664 164.891L29.7716 163.956L29.956 161.996L29.9961 160L30 157L29.9954 154.004L29.9452 152.04L29.7215 150.189L29.4861 149.344L28.6821 147.894L28.1065 147.318C27.2159 146.578 26.0421 146.25 24.9105 146.133C23.9933 146.039 23.0777 146.018 22.1566 146.005L19 146M86 169L90.0448 168.999C91.0241 168.995 92.004 168.998 92.9823 168.941L94.8519 168.682L96.3966 167.972L96.9722 167.397L97.6821 165.852L97.9414 163.981L97.9807 162.995L97.9954 161.999L98 160L98 157L98 147L95 147L95 154.002L94.9992 158L94.9807 159.999L94.8519 161.981C94.7168 162.916 94.5069 163.868 93.9969 164.682L92.8426 165.971L92.0116 166.41L91.6096 166.657L90 167L90 147L88.1559 147.59L87.4437 148.029L86.5787 149.318L86.1466 151.059L86.0586 152.019C85.9974 153.346 86.0027 154.672 86 156L86 169M154 148L154 170L158 170L158 160L158.913 161.671L159.525 163.16L159.834 164.04L160.548 165.946L161.417 167.682L162.492 168.971L163.225 169.41L165 170L164.643 168.329L164.21 166.841L162.907 163.159L162.587 162.159L162.414 161.671L162 160L163.722 159.667L164.333 159.278L164.667 158.667L164.889 157.889C165.001 156.924 164.989 155.969 165 155L165 153L165 148L154 148z"/>
<path style="fill:#50a7e5; stroke:none;" d="M22 149L22 166L23.6096 165.84L24.0116 165.685L24.8426 165.396L25.9969 164.397C26.5275 163.684 26.7226 162.799 26.8519 161.941C26.9979 160.972 26.9769 159.976 26.9954 158.999L27 155.005L27 149L22 149z"/>
<path style="fill:#29338f; stroke:none;" d="M225 149L224.673 150.671L222.884 158C222.564 159.328 222.281 160.663 222.004 162C221.731 163.316 221.468 164.642 221.289 165.975C221.14 167.089 221.05 168.206 221.015 169.329L221 171L222.39 170.663L222.716 170.434L223.448 170.049L224.715 169.147L226.112 168.548L227.444 168.757L228.023 169.302L229 171L233 171C232.749 169.653 232.484 168.309 232.271 166.955C232.063 165.636 231.916 164.308 231.64 163C231.354 161.65 230.938 160.335 230.594 159L230.209 157C230.027 155.691 230.017 154.364 230.004 153.045L230 149L225 149M288 172L292 172L292 160L292.913 161.671L293.525 163.16L293.833 164.045L294.535 166L295.35 167.941L296.342 169.682L297.478 170.971L298.557 171.657L300 172L300 149L297 149L297 160L295.881 158.914L295.654 158.483L295.12 157.679C294.681 156.806 294.325 155.893 293.965 154.986L292.907 152.16L292.587 151.159L292.414 150.671L292 149L290.156 149.59L289.444 150.029L288.579 151.318L288.147 153.059L288.059 154.019C287.997 155.346 288.003 156.672 288 158L288 172M356 150L356 173L367 173L367 160L365.349 160.06L363.988 160.293L362.586 160.869L361.653 161.671L361 163L362.329 163.654L363.131 164.606L363.707 166.104L363.857 166.898L363.98 168.333L364 170L360 170L360 153L364 153L364.158 154.61L364.579 155.843L365.444 156.995L366.488 157.659L368 158L367.981 155.846L367.852 154.014C367.716 153.167 367.523 152.291 366.972 151.602L366.397 151.028L365.682 150.603L364.852 150.318L362.982 150.059L362 150.019L360.045 150.001L356 150z"/>
<path style="fill:#92b1b9; stroke:none;" d="M158 151L158 158L158.725 156.955L158.898 156.573L159.296 155.853L160.275 153.717L160.554 152.879L160.718 152.488L161 151L158 151z"/>
<path style="fill:#50a7e5; stroke:none;" d="M161 151L160.505 152.487L160.319 152.879C160.017 153.628 159.709 154.383 159.455 155.15L159.14 156.428L159 158L160.329 157.346L161.128 156.394L161.673 154.91L161.782 153.302L161.623 152.512L161.58 152.086L161 151z"/>
<path style="fill:#29338f; stroke:none;" d="M424 174L435 174L435 151L431.84 151.001C430.898 151.005 429.955 151.004 429.015 151.059L427.148 151.318L425.603 152.028L425.028 152.603L424.318 154.148L424.059 156.019L424.019 157.005L424.005 158.001L424 160L424 164L424 174z"/>
<path style="fill:#50a7e5; stroke:none;" d="M427 154L427 171L432 171L432 154L427 154z"/>
<path style="fill:#92b1b9; stroke:none;" d="M160.333 155.667L160.333 156L160.667 156.333L160.667 156L160.333 155.667M226 158L226 163L226.57 161.933L226.608 161.542L226.746 160.183L226.608 159.458L226.57 159.067L226 158z"/>
<path style="fill:#50a7e5; stroke:none;" d="M227 158L227 163L226 161L225.306 161.75L225.389 162.778L225.694 163.306L226.611 163.889L228 164L227.985 162.348C227.963 161.657 227.926 160.962 227.84 160.276L227.642 159.492L227.585 159.082L227 158z"/>
<path style="fill:#92b1b9; stroke:none;" d="M158 160L158 168L158.585 166.914L158.641 166.484L158.836 165.684L158.932 164L158.836 162.316L158.641 161.516L158.585 161.086L158 160M90 164L90 166L94 166L94 164L90 164z"/>
<path style="fill:#50a7e5; stroke:none;" d="M90 166L91.0401 166.585L91.3588 166.641L92.4776 166.897L94 167L92.9599 166.415L92.6412 166.359L91.5224 166.103L90 166z"/>
<path style="fill:#f6ac52; stroke:none;" d="M0 173L0.134259 174.511L0.450617 175.549L0.83642 176.049L0.983025 176.372L2 177L1.46451 175.478L0.920525 174.359L0.777006 174.04L0 173z"/>
<path style="fill:#74b3a2; stroke:none;" d="M1 174L1.80556 175.653L1.9892 176.091L3 177L3 174L1 174z"/>
</svg>
